name processed_emg_signals
nRows=82
nColumns=7
 
endheader
time	RGLTMED	RRF	RADDLONG	RST	RTA	RGM
0.45	0.3893234298287407	0.1966491398885922	0.4394459112616157	0.1555288164382187	0.2524634825598789	0.1663910744038509
0.451	0.3868046612736059	0.1922717542104574	0.4322303732915857	0.1577326895246407	0.257391645488725	0.1649240735494487
0.452	0.3844322187781551	0.1880157590849307	0.4251545282483724	0.1599934516621046	0.2624484634469254	0.1634233839190426
0.453	0.382203544292081	0.1838816558283058	0.4182210150309787	0.1623110859465588	0.2676240802354394	0.1618899459747601
0.454	0.3801159942263939	0.1798698190958502	0.4114322794778121	0.1646855092487881	0.2729085598501705	0.1603247517734856
0.455	0.3781668473230082	0.175980498591876	0.4047905748970462	0.1671165716804141	0.2782919015075075	0.1587288457699601
0.456	0.3763533124191277	0.1722138209020071	0.3982979628591399	0.1696040561407204	0.2837640546995983	0.1571033255598525
0.457	0.3746725360840917	0.1685697914434996	0.3919563142436164	0.1721476779444282	0.2893149342523419	0.1554493425576334
0.458	0.3731216101059171	0.165048296529299	0.3857673105321774	0.1747470845312691	0.2949344353587346	0.1537681026044381
0.459	0.3716975788045317	0.1616491055414567	0.3797324453400841	0.1774018552587134	0.3006124485599666	0.1520608665017067
0.46	0.3703974461491084	0.1583718732097898	0.3738530261777504	0.1801115012795416	0.3063388746465246	0.150328950467117
0.461	0.3692181826574334	0.1552161419913015	0.3681301764338234	0.1828754655059965	0.3121036394519144	0.1485737265099284
0.462	0.3681567320563286	0.1521813445464142	0.3625648375713276	0.1856931226620731	0.3178967085121625	0.1467966227233739
0.463	0.3672100176837362	0.1492668063074892	0.3571577715276095	0.1885637794252703	0.323708101565024	0.1449991234920868
0.464	0.3663749486153472	0.1464717481356022	0.3519095633093105	0.1914866746588445	0.3295279068632948	0.1431827696129785
0.465	0.3656484255009767	0.1437952890608924	0.3468206237726144	0.1944609797353598	0.3353462952768186	0.141349158328464
0.466	0.3650273460982967	0.1412364491019643	0.3418911925791935	0.1974857989522385	0.3411535341575654	0.1394999432715309
0.467	0.3645086104932065	0.1387941521595778	0.337121341317882	0.2005601700397818	0.3469400009417973	0.1376368343227341
0.468	0.3640891259975948	0.1364672289796663	0.3325109767822641	0.2036830647620172	0.352696196462868	0.1357615973798284
0.46900000000000003	0.3637658117169101	0.1342544201803811	0.3280598443938559	0.2068533896106532	0.3584127579476279	0.1338760540412162
0.47000000000000003	0.363535602781569	0.1321543793377546	0.3237675317613001	0.2100699865922663	0.3640804716689129	0.1319820812048408
0.47100000000000003	0.3633954542379398	0.1301656761240628	0.3196334723651542	0.213331634109109	0.3696902852262518	0.1300816105845382
0.47200000000000003	0.3633423445961815	0.1282867994929422	0.3156569493586912	0.2166370479337204	0.3752333194269794	0.1281766281463311
0.47300000000000003	0.363373279034519	0.1265161609051551	0.3118370994747614	0.2199848822776693	0.3807008797403134	0.1262691734674148
0.47400000000000003	0.3634852922628346	0.1248520975888817	0.3081729170289011	0.2233737309543958	0.3860844672976175	0.1243613390207481
0.47500000000000003	0.3636754510519904	0.1232928758285136	0.3046632580102475	0.2268021286360882	0.3913757894132888	0.1224552693879425
0.47600000000000003	0.3639408564385284	0.121836694276241	0.3013068442513834	0.2302685522043375	0.3965667696026097	0.1205531604029504
0.47700000000000004	0.3642786456171251	0.120481687280607	0.2981022676696109	0.2337714221941415	0.4016495570761504	0.1186572582285867
0.47800000000000004	0.364685993534779	0.1192259282270844	0.2950479945718195	0.2373091043307806	0.406616535695284	0.1167698583675553
0.47900000000000004	0.3651601142020704	0.1180674328853038	0.2921423700150444	0.2408799111587149	0.4114603323795149	0.1148933046092593
0.48	0.3656982617373486	0.1170041627583515	0.2893836222150804	0.2444821037613927	0.4161738249622959	0.1130299879133378
0.481	0.3662977311601527	0.11603402842977	0.286769866995216	0.2481138935703694	0.420750149496684	0.1111823452305576
0.482	0.366955858950144	0.1151548929045413	0.2842991122674851	0.2517734442618196	0.4251827070153042	0.1093528582613589
0.483	0.3676700233877273	0.1143645749409354	0.2819692625385512	0.2554588737382237	0.4294651697508434	0.1075440521521621
0.484	0.3684376446920814	0.1136608523705021	0.2797781234327894	0.2591682561924457	0.4335914868240038	0.1057584941292926
0.485	0.3692561849723009	0.1130414654037636	0.2777234062245988	0.2628996242510049	0.4375558894058524	0.1039987920702052
0.486	0.3701231480067442	0.1125041199192075	0.2758027323727602	0.2666509711927021	0.4413528953615487	0.1022675930116069
0.487	0.3710360788654206	0.1120464907331115	0.2740136380497446	0.2704202532379833	0.4449773133825614	0.1005675815938537
0.488	0.3719925633895538	0.1116662248477306	0.2723535786598288	0.2742053919038242	0.4484242466149372	0.0989014784409194
0.489	0.372990227541892	0.1113609446752877	0.2708199333409857	0.278004276418125	0.4516890957915228	0.0972720384751014
0.49	0.3740267366407546	0.1111282512353612	0.2694100094460534	0.2818147661869504	0.4547675618760969	0.0956820491657105
0.491	0.3750997944902379	0.1109657273231305	0.2681210469999577	0.2856346933072283	0.4576556482270091	0.0941343287109394
0.492	0.376207142418867	0.1108709406460668	0.2669502231299059	0.2894618651171342	0.4603496622870827	0.0926317241524532
0.493	0.3773465582389539	0.1108414469264684	0.2658946564663318	0.2932940667760627	0.4628462168054589	0.0911771094222059
0.494	0.3785158551390088	0.1108747929671852	0.264951411511895	0.2971290638657788	0.4651422305958764	0.0897733833212689
0.495	0.3797128805216475	0.1109685196776936	0.2641175029771546	0.3009646050041882	0.4672349288348738	0.088423467430352
0.496	0.3809355147989953	0.1111201650574863	0.2633899000809574	0.3047984244626494	0.4691218429026713	0.087130303951747
0.497	0.3821816701571831	0.1113272671336364	0.2627655308139781	0.3086282447773149	0.4708008097690653	0.085896853482338
0.498	0.3834492893004107	0.111587366849342	0.2622412861635499	0.3124517793443086	0.4722699709263432	0.0847260927173089
0.499	0.3847363441845184	0.1118980109001522	0.261814024297385	0.3162667349879007	0.473527770871035	0.0836210120841622
0.5	0.3860408347487785	0.1122567545147636	0.2614805747030493	0.3200708144902662	0.47457295513643	0.0825846133066638
0.501	0.3873607876540025	0.1126611641771295	0.2612377422797157	0.323861719070622	0.4754045678787403	0.081619906898542
0.502	0.3886942550340815	0.1131088202870659	0.2610823113783049	0.3276371508014182	0.4760219490218842	0.0807299095868084
0.503	0.390039313267433	0.113597319756744	0.2610110497860353	0.3313948149490083	0.476424730969287	0.0799176416650744
0.504	0.3913940617741288	0.1141242785406318	0.2610207126524485	0.3351324222270043	0.4766128348950937	0.0791861242776471
0.505	0.3927566218439178	0.1146873340967813	0.2611080463533994	0.338847690951743	0.4765864666311143	0.0785383766357614
0.506	0.3941251354998388	0.1152841477774669	0.261269792290498	0.3425383490910304	0.4763461121692495	0.0779774131679021
0.507	0.3954977644012677	0.1159124071473452	0.261502690623014	0.3462021361996308	0.4758925328018816	0.0775062406065394
0.508	0.3968726887897362	0.1165698282276155	0.2618034839293914	0.3498368052375341	0.475226759924496	0.0771278550137999
0.509	0.3982481064799659	0.1172541576646148	0.2621689207958079	0.3534401242698515	0.4743500895255232	0.0768452387487528
0.51	0.3996222318976481	0.1179631748215172	0.2625957593291256	0.3570098780490489	0.4732640763881625	0.0766613573790171
0.511	0.4009932951649132	0.1186946937919025	0.2630807705922717	0.3605438694822727	0.4719705280284305	0.076579156539409
0.512	0.4023595412336435	0.1194465653337818	0.2636207419604202	0.36403992098778	0.4704714983929175	0.0766015587404324
0.513	0.4037192290667454	0.1202166787228428	0.2642124803971704	0.3674958757458457	0.4687692813391643	0.0767314601294799
0.514	0.4050706308675084	0.121002963523396	0.2648528156509562	0.3709095988501638	0.4668664039207823	0.0769717272078317
0.515	0.4064120313573348	0.1218033912752658	0.265538603372039	0.3742789783665081	0.4647656194985302	0.0773251935067373
0.516	0.407741727101739	0.1226159770947712	0.266266728150973	0.3776019263059706	0.4624699006973571	0.07779465622622
0.517	0.4090580258839459	0.1234387811876151	0.267034106479165	0.3808763795208103	0.4599824322280073	0.0783828728405826
0.518	0.4103592461247541	0.1242699102713917	0.2678376896322989	0.3841003005312399	0.4573066035903378	0.0790925576749708
0.519	0.4116437163470429	0.1251075189058081	0.2686744664768106	0.3872716782914209	0.4544460016741031	0.07992637845774
0.52	0.412909774683697	0.1259498107288155	0.2695414661995975	0.3903885289025123	0.4514044032716258	0.0808869528535521
0.521	0.4141557684284629	0.1267950395977457	0.2704357609607107	0.3934488962800905	0.4481857675155243	0.0819768449822197
0.522	0.4153800536303685	0.1276415106349748	0.2713544684684436	0.3964508527824803	0.4447942282534743	0.0831985619284011
0.523	0.4165809947332569	0.1284875811783024	0.2722947544756067	0.3993924998058233	0.4412340863707799	0.0845545502471778
0.524	0.4177569642625036	0.1293316616363338	0.2732538351958338	0.4022719683511799	0.4375098020704272	0.0860471924706079
0.525	0.4189063425610521	0.1301722162493402	0.2742289796386248	0.4050874195687423	0.4336259871191249	0.0876788036202162
0.526	0.420027517577113	0.131007763755975	0.2752175118615323	0.4078370452843989	0.4295873970669019	0.0894516277304126
0.527	0.4211188847060881	0.1318368779660942	0.2762168131386375	0.4105190685141864	0.4253989234467882	0.0913678343877336
0.528	0.4221788466902183	0.1326581882398871	0.2772243240439023	0.4131317439726458	0.4210655859600034	0.093429515290945
0.529	0.4232058135803792	0.1334703798739488	0.278237546448832	0.4156733585816055	0.4165925246509589	0.0956386808371186
0.53	0.4241982027654913	0.1342721943947792	0.2792540454335377	0.4181422319862983	0.4119849920753103	0.0979972567389888
0.531	0.4251544390756737	0.1350624297606669	0.280271451110112	0.4205367170857211	0.4072483454636195	0.1005070806790215
